<!DOCTYPE svg PUBLIC "-//W3C//DTD SVG 1.1//EN" "http://www.w3.org/Graphics/SVG/1.1/DTD/svg11.dtd">
<!-- Uploaded to: SVG Repo, www.svgrepo.com, Transformed by: SVG Repo Mixer Tools -->
<svg height="800px" width="800px" version="1.1" id="Layer_1" xmlns="http://www.w3.org/2000/svg" xmlns:xlink="http://www.w3.org/1999/xlink" viewBox="0 0 473.931 473.931" xml:space="preserve" fill="#000000">
<g id="SVGRepo_bgCarrier" stroke-width="0"/>
<g id="SVGRepo_tracerCarrier" stroke-linecap="round" stroke-linejoin="round"/>
<g id="SVGRepo_iconCarrier"> <circle style="fill:#c84c4c;" cx="236.966" cy="236.966" r="236.966"/> <g> <path style="fill:#ffffff;" d="M355.77,117.72c-15.779-15.45-34.671-27.581-55.068-35.67c-20.389-8.108-42.402-12.048-64.13-11.693 c-21.874,0.337-43.505,4.969-63.404,13.616c-19.914,8.591-37.938,21.223-53.006,36.606C89.9,151.309,72.418,193.995,72.74,236.958 c0.067-21.444,4.348-42.862,12.636-62.611c8.281-19.76,20.666-37.709,35.891-52.662c15.244-14.952,33.537-26.656,53.245-34.473 c19.712-7.828,40.976-11.618,61.986-11.266c21.156,0.34,42.042,4.827,61.264,13.182c19.236,8.314,36.651,20.516,51.195,35.405 c29.234,29.713,46.072,70.918,45.777,112.421c0.292,41.504-16.569,82.689-45.792,112.399 c-14.567,14.866-31.951,27.083-51.187,35.393c-19.199,8.359-40.13,12.853-61.211,13.193c-21.085,0.355-42.293-3.439-62.016-11.259 c-19.719-7.813-37.994-19.521-53.253-34.458c-15.214-14.948-27.603-32.898-35.898-52.654 c-8.288-19.753-12.569-41.167-12.636-62.611c-0.322,42.955,17.16,85.649,47.423,116.384c15.061,15.394,33.092,28.022,53.006,36.621 c19.884,8.647,41.567,13.28,63.378,13.62c21.799,0.359,43.76-3.581,64.171-11.686c20.396-8.105,39.311-20.217,55.075-35.693 c15.734-15.468,28.546-34.035,37.103-54.484c8.565-20.434,13.018-42.6,13.051-64.766c-0.06-22.166-4.486-44.332-13.059-64.766 C384.301,151.755,371.512,133.184,355.77,117.72z"/> <path style="fill:#ffffff;" d="M417.678,311.977c-9.908,23.685-24.711,45.23-42.929,63.18 c-18.249,17.957-40.13,32.067-63.763,41.511c-23.633,9.455-49.148,14.084-74.405,13.728c-25.403-0.34-50.529-5.661-73.672-15.648 c-23.158-9.934-44.164-24.553-61.709-42.443c-35.277-35.7-55.621-85.346-55.277-135.347 c-0.341-50.012,20.022-99.636,55.292-135.332c17.56-17.863,38.544-32.497,61.702-42.428c23.124-9.99,48.299-15.319,73.63-15.659 c25.324-0.355,50.776,4.269,74.427,13.721c23.633,9.433,45.515,23.554,63.771,41.496c18.219,17.949,33.017,39.494,42.937,63.172 c9.916,23.67,15.034,49.339,15.098,75.026c0.367-51.464-20.625-102.592-56.923-139.313c-18.065-18.394-39.681-33.436-63.524-43.655 c-23.809-10.275-49.739-15.745-75.786-16.082c-26.054-0.359-52.261,4.415-76.59,14.148c-24.321,9.729-46.832,24.25-65.589,42.727 c-18.739,18.473-33.96,40.628-44.142,65.002c-10.204,24.359-15.48,50.768-15.513,77.181c0.06,26.409,5.321,52.815,15.521,77.174 c10.211,24.355,25.41,46.525,44.149,64.987c18.784,18.451,41.268,32.987,65.589,42.705c24.314,9.74,50.566,14.514,76.538,14.155 c26.125-0.337,51.995-5.803,75.816-16.078c23.846-10.215,45.455-25.257,63.531-43.644c36.299-36.718,57.29-87.845,56.923-139.306 C432.708,262.642,427.593,288.306,417.678,311.977z"/> </g> <circle style="fill:#9BD7D9;" cx="236.554" cy="236.966" r="125.136"/> <g> <path style="fill:#5C9340;" d="M302.181,181.876c0,0-26.982,5.579-36.643,0.397c0,0-6.447-8.363-24.576-1.19 c0,0-31.812,19.117-32.228,38.245c0,0-8.857,37.855,24.576,43.03c0,0,35.042-11.551,39.472,1.994c0,0,1.212,16.737,4.438,20.321 c0,0,5.231,7.697,4.831,12.348c0,0-3.633,15.536,1.212,27.498c0,0,3.214,10.357,2.814,13.545c0,0,30.623-8.771,40.284-37.455 c0,0,5.643-19.921,6.043-25.103c0,0,8.052-23.109,10.069-30.278c0,0,7.252-21.519-4.838-18.724c0,0-8.464-7.974-14.499-13.953 C317.088,206.575,305.41,183.866,302.181,181.876z"/> <path style="fill:#5C9340;" d="M329.17,211.761l-33.837-31.083c0,0,7.252-6.372,4.838-9.953c-2.413-3.592-7.652,1.19-12.086,1.19 c-4.423,0-10.466,3.585-12.883,0.393c-2.417-3.188-4.026-2.391-6.447-0.393c-2.417,1.991-6.847,5.182-7.252,3.184 c-0.4-1.991-7.652-1.19-8.052-3.184c-0.4-1.994,1.197-7.57-2.425-6.376c-3.611,1.19-8.857,5.186-9.661,7.173 c-0.804,1.994-3.618,7.966-6.447,7.966c-2.821,0-10.069,1.594-11.278-0.797c-1.209-2.391-3.626-10.365-1.205-12.748 c2.413-2.395,14.237,0.135,13.687-2.788c-0.543-2.919-1.938-9.332-0.161-10.245c1.785-0.906,6.608-11.27,9.837-12.464 c3.214-1.194,11.678,3.188,12.89,0.397c0,0,0.4-8.367-1.212-9.564c-1.613-1.197-2.829-4.774-5.628-4.389 c-2.836,0.4-4.041,3.195-2.024,4.389c2.024,1.194,3.626,5.976,2.417,5.976c-1.22,0-12.086,0.797-12.49-1.987 c-0.408-2.791,1.205-9.568,4.823-11.955c3.641-2.387,11.285-1.994,13.702-0.797c2.425,1.194,5.238-1.197,6.05-3.188 c0.797-1.987-11.454-8.658-15.083-8.658c0,0,95.46,7.124,111.845,104.721c0,0-10.166-33.507-17.014-35.498 c0,0-3.626,2.391-6.043,1.991c-2.417-0.4-14.499-7.974-15.304-5.976c-0.812,1.991,5.635,8.763,12.497,9.556 c6.832,0.801,7.244,1.598,7.637,5.186c0.408,3.581,1.616,9.164,0.819,12.744C342.865,208.169,338.034,218.93,329.17,211.761z"/> <path style="fill:#5C9340;" d="M229.273,140.84c0,0-3.214,1.991-4.831,4.774c-1.616,2.791-1.616,5.182-1.616,5.182 s2.047,1.19,4.108,1.197c2.069,0.007,7.577-1.987,7.577-4.778C234.511,144.424,229.273,140.84,229.273,140.84z"/> <path style="fill:#5C9340;" d="M224.442,116.93c0,0-9.669,11.555-14.499,12.752c-4.838,1.197-12.89,5.175-14.9,6.776 c-2.017,1.594-8.864-1.194-4.838-4.382c4.034-3.195,14.9-10.368,12.49-11.158c-2.417-0.793-13.294,6.78-17.721,9.964 c-4.438,3.188-8.06,7.959-10.062,11.15c-2.024,3.188-1.616,11.555-6.043,13.149c-4.445,1.594-23.775,9.56-30.211,15.143 c-6.447,5.575-13.388,9.691-16.217,15.27c-2.814,5.579,1.426-8.905,3.918-14.249c0,0,17.13-30.507,56.201-49.638 C182.553,121.712,212.356,114.146,224.442,116.93z"/> <path style="fill:#5C9340;" d="M111.665,257.182c0,0-4.034-21.519,0.393-23.509c4.426-1.991,5.766-2.413,9.676,1.594 c3.888,4.004,9.253,10.758,11.263,14.346c2.032,3.581,9.28,7.962,9.28,10.75c0,2.791-1.616,9.568,0,12.752 c1.601,3.188,4.019,3.588,7.652,5.182c3.626,1.59,10.473,3.978,14.492,7.57c4.026,3.588,9.676,7.966,8.464,12.748 c-1.212,4.782-3.626,11.951-2.821,14.735c0.804,2.791,3.626,7.57,0.408,9.568c-3.229,1.991-5.643,1.598-5.238,5.175 c0.408,3.588,4.445,14.735,5.65,16.726C170.882,344.818,120.661,323.445,111.665,257.182z"/> <path style="fill:#5C9340;" d="M117.158,212.906c0.804-2.78,2.821-16.726,0.393-16.726c-4.73,17.429-4.554,17.208-6.447,30.278"/> </g> </g>
</svg>