<svg xmlns="http://www.w3.org/2000/svg" shape-rendering="geometricPrecision" text-rendering="geometricPrecision" image-rendering="optimizeQuality" fill-rule="evenodd" clip-rule="evenodd" viewBox="0 0 512 283.623"><path fill="#4A2F16" fill-rule="nonzero" d="M504.231 268.086a7.769 7.769 0 110 15.537H7.769a7.769 7.769 0 010-15.537h68.888v-94.953h28.98v94.953h398.594z"/><path fill="#5B3A1B" d="M445.167 69.15h14.941a2.616 2.616 0 012.604 2.604v113.37a2.616 2.616 0 01-2.604 2.605h-14.941a2.616 2.616 0 01-2.606-2.605V71.754a2.615 2.615 0 012.606-2.604zm-203.304 0h14.942a2.616 2.616 0 012.604 2.604v113.37a2.616 2.616 0 01-2.604 2.605h-14.942a2.618 2.618 0 01-2.604-2.605V71.754a2.616 2.616 0 012.604-2.604zM454.858 214.618h15.72c1.118 0 2.034.918 2.034 2.035v56.684a2.043 2.043 0 01-2.034 2.034h-15.72a2.042 2.042 0 01-2.034-2.034v-29.81H249.147v29.81a2.043 2.043 0 01-2.034 2.034h-15.72a2.04 2.04 0 01-2.033-2.034v-56.684a2.04 2.04 0 012.033-2.035h15.72c1.119 0 2.034.918 2.034 2.035v17.174h203.677v-17.174a2.04 2.04 0 012.034-2.035z"/><path fill="#fff" d="M230.193 92.735h242.122c3.782 0 6.874 3.097 6.874 6.874v21.913c0 3.776-3.098 6.873-6.874 6.873H230.193c-3.776 0-6.874-3.092-6.874-6.873V99.609c0-3.782 3.092-6.874 6.874-6.874z"/><rect fill="#704E2B" x="210.822" y="79.353" width="280.327" height="62.726" rx="9.621" ry="9.517"/><path fill="#5B3A1B" d="M232.566 89.029h237.106c5.235 0 9.517 4.288 9.517 9.516v24.343c0 5.228-4.288 9.516-9.517 9.516H232.566c-5.228 0-9.516-4.282-9.516-9.516V98.545c0-5.235 4.282-9.516 9.516-9.516z"/><path fill="#4A2F16" d="M220.339 180.439h261.293c5.235 0 9.517 4.284 9.517 9.517v20.062c0 5.233-4.283 9.517-9.517 9.517H220.339c-5.233 0-9.517-4.282-9.517-9.517v-20.062c0-5.235 4.282-9.517 9.517-9.517z"/><path fill="#704E2B" d="M491.149 206.961v3.057c0 5.229-4.287 9.517-9.517 9.517H220.339c-5.23 0-9.517-4.282-9.517-9.517v-3.057h280.327z"/><path fill="#4AA33E" fill-rule="nonzero" d="M76.657 196.29H19.143c-9.636.973-11.586-7.399-7.47-14.345L48.42 134.56l-1.063-1.167H27.699c-7.123 1.159-9.767-7.341-5.446-13.298l39.581-51.141H50.279c-7.237.211-9.029-7.114-4.383-14.027L81.943 7.832c2.462-3.218 5.099-7.936 9.38-7.83 3.691.091 5.907 3.935 8.099 6.747l38.345 49.183c4.159 6.57.612 13.472-6.645 13.472h-10.354l39.299 50.673c4.714 5.127 2.308 13.351-3.108 14.479h-22.848l34.264 44.219 3.755 4.846c2.863 3.601 1.432 11.859-4.752 12.669H76.657z"/></svg>