<svg xmlns="http://www.w3.org/2000/svg" xmlns:xlink="http://www.w3.org/1999/xlink" width="1024" zoomAndPan="magnify" viewBox="0 0 768 767.999994" height="1024" preserveAspectRatio="xMidYMid meet" version="1.0"><defs><filter x="0%" y="0%" width="100%" height="100%" id="b2cc2bef9a"><feColorMatrix values="0 0 0 0 1 0 0 0 0 1 0 0 0 0 1 0 0 0 1 0" color-interpolation-filters="sRGB"/></filter><clipPath id="dd37ef5453"><path d="M 116.800781 0 L 651.550781 0 L 651.550781 768 L 116.800781 768 Z M 116.800781 0 " clip-rule="nonzero"/></clipPath><mask id="fb90d85cbc"><g filter="url(#b2cc2bef9a)"><rect x="-76.8" width="921.6" fill="#000000" y="-76.799999" height="921.599993" fill-opacity="0.2"/></g></mask><clipPath id="a4416d7378"><path d="M 0.640625 1 L 367.359375 1 L 367.359375 367.558594 L 0.640625 367.558594 Z M 0.640625 1 " clip-rule="nonzero"/></clipPath><clipPath id="3b051bd928"><rect x="0" width="368" y="0" height="368"/></clipPath></defs><g clip-path="url(#dd37ef5453)"><path fill="#ff3131" d="M 384 0.00390625 C 236.433594 0.00390625 116.8125 119.628906 116.8125 267.191406 C 116.8125 275.359375 117.179688 283.441406 117.898438 291.417969 C 120.335938 318.546875 126.824219 344.503906 136.761719 368.683594 C 139.875 376.257812 143.324219 383.65625 147.09375 390.863281 C 207.960938 516.191406 311.640625 645.816406 384 767.996094 C 456.359375 645.816406 560.035156 516.191406 620.90625 390.863281 C 624.675781 383.660156 628.125 376.261719 631.234375 368.683594 C 641.171875 344.503906 647.664062 318.546875 650.101562 291.417969 C 650.820312 283.441406 651.1875 275.355469 651.1875 267.191406 C 651.1875 119.628906 531.566406 0.00390625 384 0.00390625 Z M 384 0.00390625 " fill-opacity="1" fill-rule="nonzero"/></g><g mask="url(#fb90d85cbc)"><g transform="matrix(1, 0, 0, 1, 200, 81)"><g clip-path="url(#3b051bd928)"><g clip-path="url(#a4416d7378)"><path fill="#231f20" d="M 367.042969 184.222656 C 367.042969 187.21875 366.96875 190.214844 366.820312 193.207031 C 366.675781 196.199219 366.453125 199.183594 366.160156 202.164062 C 365.867188 205.148438 365.5 208.121094 365.058594 211.082031 C 364.621094 214.046875 364.109375 216.996094 363.523438 219.933594 C 362.941406 222.871094 362.285156 225.792969 361.554688 228.699219 C 360.828125 231.605469 360.027344 234.492188 359.160156 237.359375 C 358.289062 240.226562 357.351562 243.070312 356.339844 245.890625 C 355.332031 248.710938 354.253906 251.503906 353.109375 254.273438 C 351.960938 257.039062 350.746094 259.777344 349.46875 262.484375 C 348.1875 265.191406 346.839844 267.867188 345.429688 270.511719 C 344.015625 273.152344 342.539062 275.757812 341 278.328125 C 339.460938 280.894531 337.855469 283.425781 336.191406 285.917969 C 334.527344 288.40625 332.804688 290.855469 331.019531 293.261719 C 329.234375 295.667969 327.394531 298.03125 325.492188 300.34375 C 323.59375 302.660156 321.636719 304.929688 319.625 307.148438 C 317.613281 309.367188 315.546875 311.535156 313.429688 313.65625 C 311.3125 315.773438 309.140625 317.839844 306.921875 319.851562 C 304.703125 321.863281 302.433594 323.816406 300.121094 325.71875 C 297.804688 327.617188 295.441406 329.460938 293.035156 331.246094 C 290.632812 333.03125 288.183594 334.753906 285.691406 336.417969 C 283.199219 338.082031 280.671875 339.683594 278.101562 341.226562 C 275.53125 342.765625 272.925781 344.242188 270.285156 345.652344 C 267.644531 347.066406 264.96875 348.410156 262.257812 349.691406 C 259.550781 350.972656 256.8125 352.1875 254.046875 353.332031 C 251.277344 354.480469 248.484375 355.558594 245.664062 356.566406 C 242.84375 357.574219 240 358.515625 237.132812 359.386719 C 234.265625 360.253906 231.378906 361.054688 228.476562 361.78125 C 225.570312 362.507812 222.648438 363.164062 219.707031 363.75 C 216.769531 364.332031 213.820312 364.847656 210.855469 365.285156 C 207.894531 365.726562 204.921875 366.089844 201.941406 366.386719 C 198.960938 366.679688 195.972656 366.898438 192.980469 367.046875 C 189.988281 367.191406 186.996094 367.265625 184 367.265625 C 181.003906 367.265625 178.007812 367.191406 175.019531 367.046875 C 172.027344 366.898438 169.039062 366.679688 166.058594 366.386719 C 163.078125 366.089844 160.105469 365.726562 157.140625 365.285156 C 154.179688 364.847656 151.226562 364.332031 148.289062 363.75 C 145.351562 363.164062 142.429688 362.507812 139.523438 361.78125 C 136.617188 361.054688 133.730469 360.253906 130.863281 359.382812 C 128 358.515625 125.15625 357.574219 122.335938 356.566406 C 119.511719 355.558594 116.71875 354.480469 113.953125 353.332031 C 111.183594 352.1875 108.445312 350.972656 105.738281 349.691406 C 103.03125 348.410156 100.355469 347.066406 97.714844 345.652344 C 95.070312 344.242188 92.464844 342.765625 89.898438 341.226562 C 87.328125 339.683594 84.796875 338.082031 82.304688 336.417969 C 79.816406 334.753906 77.367188 333.03125 74.960938 331.246094 C 72.554688 329.460938 70.195312 327.617188 67.878906 325.71875 C 65.5625 323.816406 63.296875 321.863281 61.074219 319.851562 C 58.855469 317.839844 56.6875 315.773438 54.570312 313.65625 C 52.449219 311.535156 50.386719 309.367188 48.375 307.148438 C 46.363281 304.929688 44.40625 302.660156 42.507812 300.34375 C 40.605469 298.03125 38.761719 295.667969 36.980469 293.261719 C 35.195312 290.855469 33.46875 288.40625 31.804688 285.917969 C 30.140625 283.425781 28.539062 280.894531 27 278.328125 C 25.457031 275.757812 23.984375 273.152344 22.570312 270.511719 C 21.160156 267.867188 19.8125 265.191406 18.53125 262.484375 C 17.25 259.777344 16.035156 257.039062 14.890625 254.273438 C 13.742188 251.503906 12.667969 248.710938 11.65625 245.890625 C 10.648438 243.070312 9.707031 240.226562 8.839844 237.359375 C 7.96875 234.492188 7.171875 231.605469 6.441406 228.699219 C 5.714844 225.792969 5.058594 222.871094 4.472656 219.933594 C 3.890625 216.996094 3.378906 214.046875 2.9375 211.082031 C 2.5 208.121094 2.132812 205.148438 1.839844 202.164062 C 1.546875 199.183594 1.324219 196.199219 1.179688 193.207031 C 1.03125 190.214844 0.957031 187.21875 0.957031 184.222656 C 0.957031 181.230469 1.03125 178.234375 1.179688 175.242188 C 1.324219 172.25 1.546875 169.265625 1.839844 166.285156 C 2.132812 163.300781 2.5 160.328125 2.9375 157.367188 C 3.378906 154.402344 3.890625 151.453125 4.472656 148.515625 C 5.058594 145.578125 5.714844 142.65625 6.441406 139.75 C 7.171875 136.84375 7.96875 133.957031 8.839844 131.089844 C 9.707031 128.222656 10.648438 125.378906 11.65625 122.558594 C 12.667969 119.738281 13.742188 116.945312 14.890625 114.175781 C 16.035156 111.410156 17.25 108.671875 18.53125 105.964844 C 19.8125 103.257812 21.160156 100.582031 22.570312 97.9375 C 23.984375 95.296875 25.457031 92.691406 27 90.121094 C 28.539062 87.554688 30.140625 85.023438 31.804688 82.53125 C 33.46875 80.042969 35.195312 77.59375 36.980469 75.1875 C 38.761719 72.78125 40.605469 70.417969 42.507812 68.105469 C 44.40625 65.789062 46.363281 63.519531 48.375 61.300781 C 50.386719 59.082031 52.449219 56.914062 54.570312 54.792969 C 56.6875 52.675781 58.855469 50.609375 61.074219 48.597656 C 63.296875 46.585938 65.5625 44.632812 67.878906 42.730469 C 70.195312 40.832031 72.554688 38.988281 74.960938 37.203125 C 77.367188 35.417969 79.816406 33.695312 82.304688 32.03125 C 84.796875 30.367188 87.328125 28.765625 89.898438 27.222656 C 92.464844 25.683594 95.070312 24.207031 97.714844 22.796875 C 100.355469 21.382812 103.03125 20.039062 105.738281 18.757812 C 108.445312 17.476562 111.183594 16.261719 113.953125 15.117188 C 116.71875 13.96875 119.511719 12.890625 122.335938 11.882812 C 125.15625 10.875 128 9.933594 130.863281 9.0625 C 133.730469 8.195312 136.617188 7.394531 139.523438 6.667969 C 142.429688 5.941406 145.351562 5.285156 148.289062 4.699219 C 151.226562 4.117188 154.179688 3.601562 157.140625 3.164062 C 160.105469 2.722656 163.078125 2.359375 166.058594 2.0625 C 169.039062 1.769531 172.027344 1.550781 175.019531 1.402344 C 178.007812 1.257812 181.003906 1.183594 184 1.183594 C 186.996094 1.183594 189.988281 1.257812 192.980469 1.402344 C 195.972656 1.550781 198.960938 1.769531 201.941406 2.0625 C 204.921875 2.359375 207.894531 2.722656 210.855469 3.164062 C 213.820312 3.601562 216.769531 4.117188 219.707031 4.699219 C 222.648438 5.285156 225.570312 5.941406 228.476562 6.667969 C 231.378906 7.394531 234.265625 8.195312 237.132812 9.0625 C 240 9.933594 242.84375 10.875 245.664062 11.882812 C 248.484375 12.890625 251.277344 13.96875 254.046875 15.117188 C 256.8125 16.261719 259.550781 17.476562 262.257812 18.757812 C 264.96875 20.039062 267.644531 21.382812 270.285156 22.796875 C 272.925781 24.207031 275.53125 25.683594 278.101562 27.222656 C 280.671875 28.765625 283.199219 30.367188 285.691406 32.03125 C 288.183594 33.695312 290.632812 35.417969 293.035156 37.203125 C 295.441406 38.988281 297.804688 40.832031 300.121094 42.730469 C 302.433594 44.632812 304.703125 46.585938 306.921875 48.597656 C 309.140625 50.609375 311.3125 52.675781 313.429688 54.792969 C 315.546875 56.914062 317.613281 59.082031 319.625 61.300781 C 321.636719 63.519531 323.59375 65.789062 325.492188 68.105469 C 327.394531 70.417969 329.234375 72.78125 331.019531 75.1875 C 332.804688 77.59375 334.527344 80.042969 336.191406 82.53125 C 337.855469 85.023438 339.460938 87.554688 341 90.121094 C 342.539062 92.691406 344.015625 95.296875 345.429688 97.9375 C 346.839844 100.582031 348.1875 103.257812 349.46875 105.964844 C 350.746094 108.671875 351.960938 111.410156 353.109375 114.175781 C 354.253906 116.945312 355.332031 119.738281 356.339844 122.558594 C 357.351562 125.378906 358.289062 128.222656 359.160156 131.089844 C 360.027344 133.957031 360.828125 136.84375 361.554688 139.75 C 362.285156 142.65625 362.941406 145.578125 363.523438 148.515625 C 364.109375 151.453125 364.621094 154.402344 365.058594 157.367188 C 365.5 160.328125 365.867188 163.300781 366.160156 166.285156 C 366.453125 169.265625 366.675781 172.25 366.820312 175.242188 C 366.96875 178.234375 367.042969 181.230469 367.042969 184.222656 Z M 367.042969 184.222656 " fill-opacity="1" fill-rule="nonzero"/></g></g></g></g><path fill="#ffffff" d="M 526.957031 265.222656 C 526.957031 267.5625 526.898438 269.902344 526.785156 272.238281 C 526.671875 274.574219 526.5 276.910156 526.269531 279.238281 C 526.039062 281.566406 525.753906 283.886719 525.410156 286.199219 C 525.066406 288.515625 524.667969 290.820312 524.210938 293.113281 C 523.753906 295.410156 523.242188 297.691406 522.671875 299.960938 C 522.105469 302.230469 521.480469 304.484375 520.800781 306.722656 C 520.121094 308.960938 519.390625 311.183594 518.601562 313.386719 C 517.8125 315.589844 516.96875 317.769531 516.074219 319.933594 C 515.179688 322.09375 514.230469 324.230469 513.230469 326.347656 C 512.230469 328.460938 511.179688 330.550781 510.078125 332.613281 C 508.972656 334.679688 507.820312 336.714844 506.617188 338.71875 C 505.414062 340.726562 504.164062 342.703125 502.863281 344.648438 C 501.566406 346.59375 500.21875 348.503906 498.824219 350.382812 C 497.429688 352.265625 495.992188 354.109375 494.507812 355.917969 C 493.023438 357.726562 491.496094 359.496094 489.925781 361.230469 C 488.351562 362.964844 486.742188 364.65625 485.085938 366.3125 C 483.429688 367.964844 481.738281 369.578125 480.003906 371.148438 C 478.269531 372.722656 476.5 374.25 474.691406 375.734375 C 472.882812 377.21875 471.039062 378.65625 469.160156 380.050781 C 467.28125 381.445312 465.367188 382.789062 463.421875 384.089844 C 461.476562 385.390625 459.5 386.640625 457.496094 387.84375 C 455.488281 389.046875 453.453125 390.199219 451.390625 391.300781 C 449.324219 392.40625 447.238281 393.457031 445.121094 394.457031 C 443.007812 395.457031 440.867188 396.40625 438.707031 397.300781 C 436.546875 398.195312 434.363281 399.039062 432.160156 399.824219 C 429.957031 400.613281 427.738281 401.347656 425.496094 402.027344 C 423.257812 402.707031 421.003906 403.328125 418.734375 403.898438 C 416.464844 404.46875 414.183594 404.980469 411.890625 405.4375 C 409.59375 405.890625 407.289062 406.292969 404.976562 406.636719 C 402.660156 406.980469 400.339844 407.265625 398.011719 407.496094 C 395.683594 407.722656 393.351562 407.894531 391.015625 408.011719 C 388.675781 408.125 386.339844 408.183594 384 408.183594 C 381.660156 408.183594 379.320312 408.125 376.984375 408.011719 C 374.648438 407.894531 372.316406 407.722656 369.988281 407.496094 C 367.660156 407.265625 365.335938 406.980469 363.023438 406.636719 C 360.707031 406.292969 358.402344 405.890625 356.109375 405.4375 C 353.816406 404.980469 351.53125 404.46875 349.261719 403.898438 C 346.992188 403.328125 344.738281 402.707031 342.5 402.027344 C 340.261719 401.347656 338.039062 400.613281 335.839844 399.824219 C 333.636719 399.039062 331.453125 398.195312 329.292969 397.300781 C 327.128906 396.40625 324.992188 395.457031 322.875 394.457031 C 320.761719 393.457031 318.671875 392.40625 316.609375 391.300781 C 314.546875 390.199219 312.511719 389.046875 310.503906 387.84375 C 308.496094 386.640625 306.519531 385.390625 304.574219 384.089844 C 302.628906 382.789062 300.71875 381.445312 298.839844 380.050781 C 296.960938 378.65625 295.117188 377.21875 293.308594 375.734375 C 291.5 374.25 289.726562 372.722656 287.996094 371.148438 C 286.261719 369.578125 284.566406 367.964844 282.914062 366.3125 C 281.257812 364.65625 279.644531 362.964844 278.074219 361.230469 C 276.503906 359.496094 274.976562 357.726562 273.492188 355.917969 C 272.007812 354.109375 270.566406 352.265625 269.175781 350.382812 C 267.78125 348.503906 266.433594 346.59375 265.132812 344.648438 C 263.832031 342.703125 262.582031 340.726562 261.378906 338.71875 C 260.175781 336.714844 259.023438 334.679688 257.921875 332.613281 C 256.816406 330.550781 255.765625 328.460938 254.765625 326.347656 C 253.765625 324.230469 252.816406 322.09375 251.921875 319.933594 C 251.027344 317.769531 250.1875 315.589844 249.398438 313.386719 C 248.609375 311.183594 247.875 308.960938 247.195312 306.722656 C 246.515625 304.484375 245.894531 302.230469 245.324219 299.960938 C 244.757812 297.691406 244.246094 295.410156 243.789062 293.113281 C 243.332031 290.820312 242.929688 288.515625 242.589844 286.199219 C 242.246094 283.886719 241.957031 281.566406 241.730469 279.238281 C 241.5 276.910156 241.328125 274.574219 241.214844 272.238281 C 241.097656 269.902344 241.039062 267.5625 241.039062 265.222656 C 241.039062 262.886719 241.097656 260.546875 241.214844 258.210938 C 241.328125 255.875 241.5 253.539062 241.730469 251.210938 C 241.957031 248.882812 242.246094 246.5625 242.589844 244.25 C 242.929688 241.933594 243.332031 239.628906 243.789062 237.335938 C 244.246094 235.039062 244.757812 232.757812 245.324219 230.488281 C 245.894531 228.21875 246.515625 225.964844 247.195312 223.726562 C 247.875 221.488281 248.609375 219.265625 249.398438 217.0625 C 250.1875 214.859375 251.027344 212.679688 251.921875 210.515625 C 252.816406 208.355469 253.765625 206.21875 254.765625 204.101562 C 255.765625 201.988281 256.816406 199.898438 257.921875 197.835938 C 259.023438 195.769531 260.175781 193.734375 261.378906 191.730469 C 262.582031 189.722656 263.832031 187.746094 265.132812 185.800781 C 266.433594 183.855469 267.78125 181.945312 269.175781 180.0625 C 270.566406 178.183594 272.007812 176.339844 273.492188 174.53125 C 274.976562 172.722656 276.503906 170.953125 278.074219 169.21875 C 279.644531 167.484375 281.257812 165.792969 282.914062 164.136719 C 284.566406 162.484375 286.261719 160.871094 287.996094 159.300781 C 289.726562 157.726562 291.5 156.199219 293.308594 154.714844 C 295.117188 153.230469 296.960938 151.792969 298.839844 150.398438 C 300.71875 149.003906 302.628906 147.660156 304.574219 146.359375 C 306.519531 145.058594 308.496094 143.808594 310.503906 142.605469 C 312.511719 141.402344 314.546875 140.25 316.609375 139.148438 C 318.671875 138.042969 320.761719 136.992188 322.875 135.992188 C 324.992188 134.992188 327.128906 134.042969 329.292969 133.148438 C 331.453125 132.253906 333.636719 131.410156 335.839844 130.625 C 338.039062 129.835938 340.261719 129.101562 342.5 128.421875 C 344.738281 127.742188 346.992188 127.117188 349.261719 126.550781 C 351.53125 125.980469 353.816406 125.46875 356.109375 125.011719 C 358.402344 124.558594 360.707031 124.15625 363.023438 123.8125 C 365.335938 123.46875 367.660156 123.183594 369.988281 122.953125 C 372.316406 122.726562 374.648438 122.554688 376.984375 122.4375 C 379.320312 122.324219 381.660156 122.265625 384 122.265625 C 386.339844 122.265625 388.675781 122.324219 391.015625 122.4375 C 393.351562 122.554688 395.683594 122.726562 398.011719 122.953125 C 400.339844 123.183594 402.660156 123.46875 404.976562 123.8125 C 407.289062 124.15625 409.59375 124.558594 411.890625 125.011719 C 414.183594 125.46875 416.464844 125.980469 418.734375 126.550781 C 421.003906 127.117188 423.257812 127.742188 425.496094 128.421875 C 427.738281 129.101562 429.957031 129.835938 432.160156 130.625 C 434.363281 131.410156 436.546875 132.253906 438.707031 133.148438 C 440.867188 134.042969 443.007812 134.992188 445.121094 135.992188 C 447.238281 136.992188 449.324219 138.042969 451.390625 139.148438 C 453.453125 140.25 455.488281 141.402344 457.496094 142.605469 C 459.5 143.808594 461.476562 145.058594 463.421875 146.359375 C 465.367188 147.660156 467.28125 149.003906 469.160156 150.398438 C 471.039062 151.792969 472.882812 153.230469 474.691406 154.714844 C 476.5 156.199219 478.269531 157.726562 480.003906 159.300781 C 481.738281 160.871094 483.429688 162.484375 485.085938 164.136719 C 486.738281 165.792969 488.351562 167.484375 489.925781 169.21875 C 491.496094 170.953125 493.023438 172.722656 494.507812 174.53125 C 495.992188 176.339844 497.429688 178.183594 498.824219 180.0625 C 500.21875 181.945312 501.566406 183.855469 502.863281 185.800781 C 504.164062 187.746094 505.414062 189.722656 506.617188 191.730469 C 507.820312 193.734375 508.972656 195.769531 510.078125 197.835938 C 511.179688 199.898438 512.230469 201.988281 513.230469 204.101562 C 514.230469 206.21875 515.179688 208.355469 516.074219 210.515625 C 516.96875 212.679688 517.8125 214.859375 518.601562 217.0625 C 519.390625 219.265625 520.121094 221.488281 520.800781 223.726562 C 521.480469 225.964844 522.105469 228.21875 522.671875 230.488281 C 523.242188 232.757812 523.753906 235.039062 524.210938 237.335938 C 524.667969 239.628906 525.066406 241.933594 525.410156 244.25 C 525.753906 246.5625 526.039062 248.882812 526.269531 251.210938 C 526.5 253.539062 526.671875 255.875 526.785156 258.210938 C 526.898438 260.546875 526.957031 262.886719 526.957031 265.222656 Z M 526.957031 265.222656 " fill-opacity="1" fill-rule="nonzero"/></svg>